<svg id="Capa_1" data-name="Capa 1" xmlns="http://www.w3.org/2000/svg" xmlns:xlink="http://www.w3.org/1999/xlink" viewBox="0 0 157 149.22"><defs><style>.cls-1{fill:url(#Degradado_sin_nombre_7);}</style><linearGradient id="Degradado_sin_nombre_7" x1="37" y1="75.12" x2="194" y2="75.12" gradientUnits="userSpaceOnUse"><stop offset="0" stop-color="#adadad"/><stop offset="0.54" stop-color="#00e650"/><stop offset="1"/></linearGradient></defs><title>Logo</title><path class="cls-1" d="M138.37,126.69c-1.44,2.5-4.7,9-10.11,9a10,10,0,0,1-6.08-1.91c-4.2-3.28-4.5-8.93-4.1-14,1-12.08,4.77-23.73,8.48-35.26s7.41-23.24,8.15-35.33-1.78-24.82-9.33-34.3C115.34,2.29,97-2.54,81.69,2.43,68.88,6.59,58.2,17.36,55,30.45c-3.12,12.75.76,26.27,6.8,37.94-11.72-.7-23.14,8.77-24.62,20.42s7.19,23.68,18.71,25.94S80,109.17,83,97.83c2.79-10.41-1.8-21.25-6.57-30.91s-10-20-8.48-30.66c1.61-11.35,11.59-20.9,23-22.21s23.17,5.57,27.81,16c3.22,7.26,3.16,15.57,2,23.42-3,19.82-12.8,38.14-15.68,58-1.13,7.82-1.13,16,1.86,23.34s9.41,13.57,17.23,14.69c7.51,1.08,15.5-2.18,20.75-7.65s8.16-13,11.16-19.94c9.18-21.34,17.63-43,26.72-64.38l10.68-25.06a7.06,7.06,0,1,0-13-5.52ZM70.48,91.82a10.15,10.15,0,0,1-20.3.22,10.15,10.15,0,1,1,20.3-.22Z" transform="translate(-37 -0.51)"/></svg>